<svg width="20" height="20" viewBox="0 0 20 20" fill="none" xmlns="http://www.w3.org/2000/svg">
<path d="M2.8442 20H17.4274C19.058 20 20 18.7928 20 16.4016V3.58677C20 1.2072 19.0489 0 17.1558 0H2.57247C0.951069 0 0 1.19561 0 3.58677V16.4016C0 18.8044 0.960151 20 2.8442 20ZM8.92209 10.5862L2.08332 1.9385C2.28262 1.834 2.5181 1.77595 2.79891 1.77595H17.2102C17.4908 1.77595 17.7355 1.834 17.9439 1.96173L11.1141 10.5862C10.7246 11.0853 10.3804 11.3059 10.0181 11.3059C9.65577 11.3059 9.31158 11.0853 8.92209 10.5862ZM1.38589 16.4016V3.58677C1.38589 3.5055 1.38589 3.54032 1.38589 3.47069L6.59418 10.0174L1.39493 16.5989C1.38589 16.5409 1.38589 16.4713 1.38589 16.4016ZM18.6141 3.59836V16.4132V16.5641L13.442 10.0174L18.6141 3.5055V3.59836ZM2.79891 18.224C2.53622 18.224 2.31883 18.1776 2.12861 18.0731L7.54528 11.213L8.13404 11.9559C8.76808 12.7568 9.37496 13.0934 10.0181 13.0934C10.6521 13.0934 11.2681 12.7568 11.9021 11.9559L12.4909 11.213L17.8986 18.0615C17.7083 18.1776 17.4728 18.224 17.2102 18.224H2.79891Z" fill="#EEEEEE"/>
</svg>
