<svg width="20" height="20" viewBox="0 0 20 20" fill="none" xmlns="http://www.w3.org/2000/svg">
<path d="M14.8671 20.0001C16.6463 20.0001 17.8222 19.5195 18.865 18.3539C18.9469 18.2721 19.0185 18.18 19.1002 18.0982C19.7137 17.4131 20 16.7383 20 16.0941C20 15.3579 19.5707 14.6728 18.6606 14.0389L15.6851 11.9735C14.7649 11.3395 13.6912 11.2679 12.8324 12.1166L12.045 12.9039C11.8098 13.1391 11.6054 13.1493 11.3702 13.0061C10.8283 12.6585 9.71372 11.6871 8.95706 10.9305C8.15953 10.1432 7.38245 9.26381 6.98366 8.61967C6.84052 8.38448 6.86094 8.19021 7.09613 7.95502L7.8732 7.16769C8.73212 6.30881 8.66058 5.22495 8.0266 4.31494L5.95093 1.33948C5.3272 0.429429 4.64213 0.0102214 3.90593 1.27743e-05C3.26174 -0.0102395 2.58693 0.28629 1.90186 0.899768C1.80981 0.981611 1.72801 1.05316 1.636 1.12475C0.480591 2.16769 0 3.34355 0 5.11248C0 8.03682 1.7996 11.5951 5.10226 14.8978C8.38446 18.18 11.953 20.0001 14.8671 20.0001ZM14.8774 18.4254C12.27 18.4765 8.92639 16.4725 6.27813 13.8344C3.6094 11.1759 1.51328 7.71987 1.56441 5.11248C1.58487 3.98774 1.97341 3.01636 2.7812 2.32108C2.84253 2.2597 2.90392 2.20857 2.97546 2.15748C3.27199 1.89162 3.6094 1.74848 3.89572 1.74848C4.20246 1.74848 4.46832 1.86095 4.66259 2.16769L6.64625 5.14315C6.86094 5.46014 6.8814 5.81801 6.56441 6.13496L5.66461 7.03476C4.94887 7.74033 5.01021 8.59921 5.52151 9.28427C6.10432 10.0716 7.11659 11.2168 7.89367 11.9939C8.68099 12.7812 9.91825 13.8855 10.7055 14.4786C11.3906 14.9898 12.2598 15.0409 12.9653 14.3354L13.8651 13.4356C14.182 13.1187 14.5297 13.1391 14.8467 13.3436L17.8222 15.3273C18.1289 15.5317 18.2516 15.7874 18.2516 16.0941C18.2516 16.3907 18.1084 16.7179 17.8324 17.0246C17.7812 17.0962 17.7404 17.1473 17.679 17.2189C16.9735 18.0164 16.0021 18.405 14.8774 18.4254Z" fill="#0F044C"/>
</svg>
